<svg width="24" height="24" viewBox="0 0 24 24" fill="none" xmlns="http://www.w3.org/2000/svg">
<path d="M3.23286 14.7979C1.58905 16.4418 1.58905 19.1233 3.23286 20.7669C4.87668 22.4108 7.55809 22.4108 9.20187 20.7669L13.3057 16.6631C14.8728 15.096 14.9593 12.5905 13.5332 10.9329L13.533 10.9331C13.3965 10.7723 13.2016 10.6725 12.9913 10.6556C12.7809 10.6388 12.5724 10.7066 12.4122 10.8437C12.2517 10.9807 12.1525 11.1762 12.1365 11.3865C12.1203 11.5968 12.1888 11.8049 12.3264 11.9648C13.224 13.0078 13.1813 14.5491 12.1866 15.5439L8.08268 19.6478C7.03949 20.691 5.39496 20.691 4.352 19.6478C3.30899 18.6046 3.30899 16.9602 4.352 15.9171L8.26928 11.9998V12C8.42127 11.8522 8.50758 11.6498 8.50923 11.438C8.51071 11.226 8.42716 11.0225 8.27737 10.8727C8.12759 10.7227 7.92388 10.6394 7.71208 10.6409C7.5001 10.6423 7.29768 10.7288 7.15009 10.8806L3.23286 14.7979ZM10.6942 7.33656C9.12715 8.90364 9.04052 11.4092 10.4668 13.0667H10.467C10.6515 13.2813 10.9364 13.3812 11.2144 13.3291C11.4927 13.2771 11.7219 13.0809 11.8165 12.8142C11.9113 12.5476 11.8566 12.2508 11.6735 12.0351C10.7759 10.9921 10.8186 9.45086 11.8134 8.45604L15.9173 4.35217C16.9605 3.30897 18.605 3.30897 19.6479 4.35217C20.691 5.39518 20.691 7.0397 19.6479 8.08285L15.7307 12.0001V11.9999C15.5787 12.1477 15.492 12.3501 15.4905 12.5621C15.4889 12.7739 15.5724 12.9776 15.7224 13.1276C15.8722 13.2774 16.0759 13.3609 16.2879 13.3593C16.4998 13.3578 16.7023 13.2713 16.8499 13.1191L20.7671 9.20187C22.411 7.55805 22.411 4.87645 20.7671 3.23286C19.1233 1.58905 16.4419 1.58905 14.7981 3.23286L10.6942 7.33656Z" fill="black"/>
</svg>
